<?xml version="1.0" encoding="UTF-8" standalone="no"?>
<!-- Created with Inkscape (http://www.inkscape.org/) -->

<svg
   width="210mm"
   height="297mm"
   viewBox="0 0 210 297"
   version="1.1"
   id="svg5"
   inkscape:version="1.1.2 (b8e25be8, 2022-02-05)"
   sodipodi:docname="star-with-shadow.svg"
   xmlns:inkscape="http://www.inkscape.org/namespaces/inkscape"
   xmlns:sodipodi="http://sodipodi.sourceforge.net/DTD/sodipodi-0.dtd"
   xmlns="http://www.w3.org/2000/svg"
   xmlns:svg="http://www.w3.org/2000/svg">
  <sodipodi:namedview
     id="namedview7"
     pagecolor="#ffffff"
     bordercolor="#666666"
     borderopacity="1.0"
     inkscape:pageshadow="2"
     inkscape:pageopacity="0.0"
     inkscape:pagecheckerboard="0"
     inkscape:document-units="mm"
     showgrid="false"
     inkscape:zoom="0.51580387"
     inkscape:cx="397.43789"
     inkscape:cy="561.25984"
     inkscape:window-width="1393"
     inkscape:window-height="801"
     inkscape:window-x="0"
     inkscape:window-y="25"
     inkscape:window-maximized="0"
     inkscape:current-layer="layer1" />
  <defs
     id="defs2" />
  <g
     inkscape:label="Layer 1"
     inkscape:groupmode="layer"
     id="layer1">
    <path
       sodipodi:type="star"
       style="fill:#800000;fill-rule:evenodd"
       id="path31"
       inkscape:flatsided="false"
       sodipodi:sides="5"
       sodipodi:cx="207.44319"
       sodipodi:cy="321.82776"
       sodipodi:r1="304.87897"
       sodipodi:r2="152.43948"
       sodipodi:arg1="0.58623894"
       sodipodi:arg2="1.2145575"
       inkscape:rounded="0"
       inkscape:randomized="0"
       d="M 461.4157,490.49652 260.60672,464.69635 125.51148,615.49148 87.995515,416.5381 -97.165892,334.65316 80.456942,237.49337 101.11613,36.09057 248.40905,174.9959 l 197.92949,-42.58883 -86.59081,183.008 z"
       transform="matrix(0.26458333,0,0,0.26458333,62.580311,43.601036)"
       inkscape:transform-center-x="6.698798"
       inkscape:transform-center-y="1.048613" />
    <path
       style="fill:#800000;stroke-width:1.93872"
       d="m 361.67266,772.4239 c -0.60876,-2.57962 -8.9465,-46.42539 -18.52834,-97.43505 -9.58184,-51.00966 -17.79456,-93.32226 -18.25051,-94.02799 -0.45595,-0.70574 -41.45427,-19.16787 -91.10739,-41.02695 -49.65312,-21.85909 -90.2679,-40.18 -90.25507,-40.71315 0.0128,-0.53315 39.17086,-22.32335 87.01784,-48.42265 l 86.99451,-47.45331 1.01563,-7.80026 c 0.5586,-4.29014 5.19659,-49.03357 10.30665,-99.42983 5.11005,-50.39626 9.90238,-91.40022 10.64958,-91.11991 0.74722,0.28032 29.08753,26.68241 62.97845,58.67131 33.89093,31.9889 66.29439,62.43622 72.0077,67.6607 l 10.38785,9.49906 96.96724,-20.83404 c 53.332,-11.45873 97.24816,-20.53164 97.59149,-20.16203 0.34333,0.36961 -18.51031,41.12516 -41.89699,90.56788 l -42.52124,89.89586 50.27686,86.52778 c 27.65228,47.59029 50.15263,86.65914 50.00077,86.81966 -0.1518,0.16053 -43.46109,-5.29889 -96.24278,-12.13205 -52.78169,-6.83316 -97.78542,-12.19906 -100.00828,-11.9242 -2.54,0.31405 -26.57043,25.7101 -64.67938,68.35497 -33.35079,37.32039 -63.10381,70.40207 -66.1178,73.51484 l -5.47997,5.6596 z"
       id="path269"
       transform="scale(0.26458333)" />
    <path
       style="opacity:0.1;fill:#800000;stroke-width:0.512953"
       d="m 105.95163,209.50003 c -0.16107,-0.68253 -2.3671,-12.28339 -4.90229,-25.77969 C 98.514139,170.22403 96.341191,159.02882 96.220554,158.8421 96.099917,158.65537 85.252445,153.7706 72.115057,147.98705 58.977669,142.2035 48.231676,137.35609 48.23507,137.21503 c 0.0034,-0.14106 10.363957,-5.90639 23.02347,-12.81183 l 23.017297,-12.55535 0.268719,-2.06382 c 0.147796,-1.1351 1.374931,-12.973474 2.726968,-26.30748 1.352034,-13.334011 2.620003,-24.182975 2.817706,-24.10881 0.1977,0.07417 7.69607,7.059721 16.66305,15.523451 8.96697,8.46373 17.54039,16.519583 19.05203,17.901895 l 2.74846,2.51329 25.65591,-5.512338 c 14.11076,-3.031789 25.73024,-5.43233 25.82108,-5.334538 0.0908,0.09779 -4.89752,10.881036 -11.08524,23.96276 l -11.25041,23.78494 13.30241,22.89381 c 7.31634,12.5916 13.26955,22.92856 13.22937,22.97103 -0.0402,0.0425 -11.49908,-1.40199 -25.46423,-3.20993 -13.96516,-1.80794 -25.87239,-3.22767 -26.46052,-3.15495 -0.67205,0.0831 -7.0301,6.80247 -17.11309,18.08559 -8.82406,9.87435 -16.69622,18.62721 -17.49367,19.4508 l -1.44991,1.49743 z"
       id="path438" />
  </g>
</svg>
